<?xml version="1.0" encoding="utf-8"?>
<!-- Generator: Adobe Illustrator 16.0.0, SVG Export Plug-In . SVG Version: 6.00 Build 0)  -->
<!DOCTYPE svg PUBLIC "-//W3C//DTD SVG 1.1//EN" "http://www.w3.org/Graphics/SVG/1.1/DTD/svg11.dtd">
<svg version="1.1" id="Layer_1" xmlns="http://www.w3.org/2000/svg" xmlns:xlink="http://www.w3.org/1999/xlink" x="0px" y="0px"
	 width="60px" height="60px" viewBox="0 0 60 60" enable-background="new 0 0 60 60" xml:space="preserve">
<g>
	<path fill-rule="evenodd" clip-rule="evenodd" fill="#050505" d="M29.999,1.652c-15.655,0-28.347,12.692-28.347,28.347
		s12.692,28.347,28.347,28.347c15.655,0,28.347-12.69,28.347-28.347S45.654,1.652,29.999,1.652z M48.444,43.937
		c-12.297,0-24.581,0-36.89,0c0-9.297,0-18.571,0-27.873c12.292,0,24.576,0,36.89,0C48.444,25.344,48.444,34.629,48.444,43.937z"/>
	<path fill-rule="evenodd" clip-rule="evenodd" fill="#050505" d="M28.849,31.736c0.701,0.708,1.758,0.675,2.485-0.057
		c4.218-4.247,8.435-8.497,12.651-12.747c0.08-0.081,0.146-0.176,0.248-0.297c-9.447,0-18.822,0-28.273,0
		c0.085,0.108,0.115,0.156,0.153,0.195C20.358,23.134,24.6,27.438,28.849,31.736z"/>
	<path fill-rule="evenodd" clip-rule="evenodd" fill="#050505" d="M33.115,33.536c-0.496,0.411-1.047,0.832-1.645,1.028
		c-1.671,0.551-3.205,0.234-4.491-1.03c-0.577-0.566-1.155-1.133-1.748-1.715c-3.08,3.155-6.156,6.307-9.29,9.518
		c9.407,0,18.729,0,28.129,0c-3.115-3.192-6.176-6.328-9.252-9.481C34.233,32.441,33.716,33.038,33.115,33.536z"/>
	<path fill-rule="evenodd" clip-rule="evenodd" fill="#050505" d="M14.148,20.53c0,6.354,0,12.609,0,18.951
		c3.132-3.217,6.2-6.37,9.287-9.541C20.34,26.805,17.272,23.695,14.148,20.53z"/>
	<path fill-rule="evenodd" clip-rule="evenodd" fill="#050505" d="M45.884,39.484c0-6.3,0-12.479,0-18.571
		c-3.064,2.999-6.158,6.025-9.271,9.072C39.714,33.163,42.769,36.292,45.884,39.484z"/>
</g>
</svg>
